/* XPM */
static char *monitor_network_png[] = {
/* columns rows colors chars-per-pixel */
"16 16 61 1 ",
"  c black",
". c gray6",
"X c gray24",
"o c #004C09",
"O c #006B0A",
"+ c #007D10",
"@ c #464646",
"# c #00800B",
"$ c #00A615",
"% c #51EA62",
"& c #3578AC",
"* c #2975B1",
"= c #2C79B5",
"- c #2E7AB6",
"; c #337FBB",
": c #3480BC",
"> c #3783BF",
", c #4589BE",
"< c #3C88C4",
"1 c #3C8AC6",
"2 c #3D8AC6",
"3 c #3E8DC9",
"4 c #418DC9",
"5 c #418ECA",
"6 c #4190CC",
"7 c #4293CF",
"8 c #4692CE",
"9 c #579ACE",
"0 c #4494D0",
"q c #4995D1",
"w c #4799D5",
"e c #4D9BD7",
"r c #4C9EDA",
"t c #539FDB",
"y c #4CA0DC",
"u c #52A7E3",
"i c #54A7E3",
"p c #5BA7E3",
"a c #57AEEA",
"s c #5CAFEB",
"d c #5FB1ED",
"f c #73BAEE",
"g c #62B5F1",
"h c #66BAF6",
"j c #9F9F9F",
"k c gray67",
"l c gray80",
"z c #CDCDCD",
"x c #CECECE",
"c c gray81",
"v c #D2D2D2",
"b c gray83",
"n c gray84",
"m c #D8D8D8",
"M c gray85",
"N c #DADADA",
"B c gray87",
"V c #E2E2E2",
"C c gray90",
"Z c #EAEAEA",
"A c None",
/* pixels */
"AAAAAAAAAAAAAAAA",
"AAAZCCCCCCCCZAAA",
"AAAV&;:><489VAAA",
"AAAB-pppppptBAAA",
"AAAM*q85213eMAAA",
"AAAb=67wyuadbAAA",
"AAAc,0risghfcAAA",
"AAAlzvnMNmbcxAAA",
"AAAAAAjjjjAAAAAA",
"AAAAAAkkkkAAAAAA",
"AAAAA.@XX@.AAAAA",
"AAAAAAAAAAAAAAAA",
"AAAAAA$++$AAAAAA",
"AAA   o%%o   AAA",
"AAAAAAO##OAAAAAA",
"AAAAAAAAAAAAAAAA"
};
